<?xml version="1.0" standalone="no"?>
<!DOCTYPE svg PUBLIC "-//W3C//DTD SVG 20010904//EN"
 "http://www.w3.org/TR/2001/REC-SVG-20010904/DTD/svg10.dtd">
<svg version="1.0" xmlns="http://www.w3.org/2000/svg"
 width="68.000000pt" height="52.000000pt" viewBox="0 0 68.000000 52.000000"
 preserveAspectRatio="xMidYMid meet">

<g transform="translate(0.000000,52.000000) scale(0.100000,-0.100000)"
fill="#000000" stroke="none">
<path d="M566 475 c-102 -58 -174 -112 -263 -198 -83 -80 -74 -80 -176 -5
l-58 42 -31 -31 c-30 -30 -30 -33 -15 -55 9 -13 58 -67 109 -122 l93 -98 60
93 c75 117 221 270 314 329 39 25 71 48 71 51 0 3 -6 13 -12 22 -12 16 -20 14
-92 -28z"/>
</g>
</svg>
